<svg width="22" height="23" viewBox="0 0 22 23" fill="none" xmlns="http://www.w3.org/2000/svg">
<g clip-path="url(#clip0_2042_22825)">
<path d="M11 22.5C17.0751 22.5 22 17.5751 22 11.5C22 5.42487 17.0751 0.5 11 0.5C4.92487 0.5 0 5.42487 0 11.5C0 17.5751 4.92487 22.5 11 22.5ZM9.17059 13.7374L14.2711 9.13454C14.4949 8.93586 14.2222 8.83898 13.925 9.01919L7.63 12.9906L4.91089 12.142C4.32369 11.9622 4.31947 11.5587 5.04273 11.2686L15.6385 7.18289C16.1224 6.96319 16.5895 7.29913 16.4048 8.03981L14.6003 16.5431C14.4743 17.1473 14.1092 17.2919 13.6033 17.0127L10.8546 14.9819L9.53333 16.2667C9.37984 16.4159 9.25833 16.5417 8.98333 16.5417L9.17059 13.7374Z" fill="#504655"/>
</g>
<defs>
<clipPath id="clip0_2042_22825">
<rect width="22" height="22" fill="white" transform="translate(0 0.5)"/>
</clipPath>
</defs>
</svg>
