<svg width="22" height="23" viewBox="0 0 22 23" fill="none" xmlns="http://www.w3.org/2000/svg">
<path d="M18.4531 4.20156C16.4619 2.27213 13.8101 1.21094 10.992 1.21094C5.17515 1.21094 0.441856 5.78646 0.441856 11.4094C0.441856 13.2056 0.926591 14.9605 1.84854 16.5086L0.351562 21.7916L5.94502 20.3721C7.48477 21.1852 9.21936 21.6124 10.9872 21.6124H10.992C16.804 21.6124 21.6419 17.0369 21.6419 11.414C21.6419 8.6898 20.4443 6.131 18.4531 4.20156ZM10.992 19.8943C9.41421 19.8943 7.86971 19.4854 6.52481 18.7137L6.2064 18.5299L2.88929 19.3706L3.77322 16.2422L3.56412 15.9206C2.68494 14.57 2.22397 13.0127 2.22397 11.4094C2.22397 6.73739 6.15888 2.93365 10.9967 2.93365C13.3396 2.93365 15.5399 3.81568 17.1937 5.41894C18.8475 7.02221 19.8645 9.14919 19.8598 11.414C19.8598 16.0906 15.8251 19.8943 10.992 19.8943ZM15.8013 13.5455C15.5399 13.4169 14.2425 12.8013 14.0002 12.7186C13.7578 12.6314 13.582 12.59 13.4061 12.8473C13.2303 13.1045 12.7266 13.6742 12.5697 13.8487C12.4177 14.0187 12.2608 14.0417 11.9995 13.9131C10.4502 13.1643 9.43322 12.5762 8.41147 10.8811C8.14059 10.4309 8.68235 10.463 9.1861 9.48913C9.27164 9.31916 9.22887 9.17216 9.16233 9.04353C9.0958 8.9149 8.5683 7.66076 8.34969 7.15084C8.13584 6.6547 7.91723 6.72361 7.75565 6.71442C7.60358 6.70524 7.42774 6.70524 7.25191 6.70524C7.07607 6.70524 6.79093 6.76955 6.54857 7.02221C6.3062 7.27947 5.62662 7.89505 5.62662 9.14919C5.62662 10.4033 6.57233 11.6161 6.70064 11.7861C6.83371 11.9561 8.55879 14.5286 11.2058 15.6358C12.8786 16.334 13.5345 16.3938 14.3709 16.2743C14.8794 16.2008 15.9296 15.6587 16.1482 15.0615C16.3668 14.4643 16.3668 13.9544 16.3003 13.8487C16.2385 13.7339 16.0627 13.6696 15.8013 13.5455Z" fill="#504655"/>
</svg>
