<svg width="24" height="24" viewBox="0 0 24 24" fill="none" xmlns="http://www.w3.org/2000/svg">
<g id="visibility_off">
<mask id="mask0_2261_20210" style="mask-type:alpha" maskUnits="userSpaceOnUse" x="0" y="0" width="24" height="24">
<rect id="Bounding box" width="24" height="24" fill="#D9D9D9"/>
</mask>
<g mask="url(#mask0_2261_20210)">
<path id="visibility_off_2" d="M15.4474 12.6453L14.6512 11.8491C14.8012 10.9761 14.5538 10.2203 13.9089 9.58183C13.264 8.94337 12.5115 8.69913 11.6512 8.84913L10.8551 8.05298C11.023 7.98375 11.1983 7.93183 11.381 7.89721C11.5637 7.86259 11.7704 7.84528 12.0012 7.84528C13.0204 7.84528 13.8842 8.19945 14.5926 8.90778C15.3009 9.61612 15.6551 10.4799 15.6551 11.4991C15.6551 11.7299 15.6377 11.943 15.6031 12.1386C15.5685 12.3341 15.5166 12.503 15.4474 12.6453ZM18.6089 15.7184L17.8512 15.0491C18.4845 14.5658 19.047 14.0366 19.5387 13.4616C20.0304 12.8866 20.4512 12.2325 20.8012 11.4991C19.9679 9.8158 18.772 8.4783 17.2137 7.48663C15.6554 6.49497 13.9179 5.99913 12.0012 5.99913C11.5179 5.99913 11.0429 6.03247 10.5762 6.09913C10.1095 6.1658 9.6512 6.2658 9.2012 6.39913L8.42043 5.61836C9.00119 5.39913 9.59222 5.24111 10.1935 5.14431C10.7948 5.04753 11.3974 4.99913 12.0012 4.99913C14.1717 4.99913 16.157 5.59561 17.957 6.78856C19.757 7.98151 21.0794 9.5517 21.9243 11.4991C21.5666 12.303 21.1137 13.0584 20.5656 13.7655C20.0176 14.4725 19.3653 15.1235 18.6089 15.7184ZM19.7243 21.1376L15.832 17.2568C15.3897 17.453 14.8406 17.6257 14.1849 17.7751C13.5291 17.9245 12.8012 17.9991 12.0012 17.9991C9.81787 17.9991 7.83261 17.4027 6.04543 16.2097C4.25824 15.0168 2.93581 13.4466 2.07812 11.4991C2.46658 10.6158 2.97875 9.78856 3.61465 9.01741C4.25055 8.24626 4.9294 7.59914 5.6512 7.07606L2.86273 4.27606L3.57043 3.56836L20.432 20.4299L19.7243 21.1376ZM6.35888 7.78376C5.78581 8.19144 5.19992 8.72733 4.6012 9.39144C4.00248 10.0556 3.53582 10.7581 3.2012 11.4991C4.03453 13.1825 5.23037 14.52 6.7887 15.5116C8.34703 16.5033 10.0845 16.9991 12.0012 16.9991C12.5781 16.9991 13.1595 16.943 13.7454 16.8309C14.3313 16.7187 14.7717 16.6056 15.0666 16.4914L13.4358 14.8491C13.2781 14.9376 13.0583 15.0104 12.7762 15.0674C12.4942 15.1245 12.2358 15.153 12.0012 15.153C10.982 15.153 10.1182 14.7988 9.40985 14.0905C8.70152 13.3822 8.34735 12.5184 8.34735 11.4991C8.34735 11.2773 8.37588 11.0286 8.43293 10.753C8.48998 10.4773 8.56273 10.2478 8.6512 10.0645L6.35888 7.78376Z" fill="#8A7E8F"/>
</g>
</g>
</svg>
