<svg width="46" height="17" viewBox="0 0 46 17" fill="none" xmlns="http://www.w3.org/2000/svg">
<path fill-rule="evenodd" clip-rule="evenodd" d="M11.5875 15.5673H7.97529L5.26654 5.29703C5.13797 4.8246 4.86498 4.40694 4.46343 4.21009C3.4613 3.71541 2.35701 3.32172 1.15234 3.12316V2.72776H6.9714C7.77451 2.72776 8.37685 3.32172 8.47723 4.01154L9.88268 11.4198L13.4932 2.72776H17.005L11.5875 15.5673ZM19.0122 15.5673H15.6007L18.4099 2.72776H21.8214L19.0122 15.5673ZM26.2366 6.28274C26.337 5.59121 26.9394 5.1958 27.6421 5.1958C28.7464 5.09652 29.9493 5.29508 30.9532 5.78805L31.5555 3.02365C30.5516 2.62825 29.4473 2.42969 28.4452 2.42969C25.1341 2.42969 22.7248 4.20815 22.7248 6.67643C22.7248 8.55417 24.4314 9.54011 25.6361 10.1341C26.9394 10.7263 27.4413 11.1217 27.3409 11.714C27.3409 12.6024 26.337 12.9978 25.3349 12.9978C24.1302 12.9978 22.9256 12.7016 21.823 12.2069L21.2207 14.9731C22.4254 15.466 23.7287 15.6646 24.9333 15.6646C28.646 15.7622 30.9532 13.9854 30.9532 11.3186C30.9532 7.96021 26.2366 7.76336 26.2366 6.28274ZM42.8901 15.5673L40.1814 2.72776H37.2719C36.6695 2.72776 36.0672 3.12316 35.8664 3.71541L30.8505 15.5673H34.3623L35.0633 13.6912H39.3783L39.7798 15.5673H42.8901ZM37.7743 6.18401L38.7764 11.023H35.9673L37.7743 6.18401Z" fill="#172B85"/>
</svg>
