<svg width="39" height="25" viewBox="0 0 39 25" fill="none" xmlns="http://www.w3.org/2000/svg">
<path fill-rule="evenodd" clip-rule="evenodd" d="M9.60927 22.8942H6.47865L4.13107 7.79089C4.01964 7.09614 3.78305 6.48194 3.43504 6.19246C2.56652 5.46499 1.60948 4.88603 0.56543 4.59403V4.01256H5.60861C6.30464 4.01256 6.82666 4.88603 6.91367 5.90047L8.13172 16.795L11.2608 4.01256H14.3044L9.60927 22.8942ZM16.044 22.8942H13.0874L15.522 4.01256H18.4786L16.044 22.8942ZM22.3052 9.24047C22.3922 8.22351 22.9142 7.64204 23.5232 7.64204C24.4803 7.49604 25.5228 7.78803 26.3928 8.51299L26.9148 4.44769C26.0448 3.86622 25.0878 3.57422 24.2192 3.57422C21.3496 3.57422 19.2615 6.1896 19.2615 9.81943C19.2615 12.5808 20.7406 14.0307 21.7847 14.9042C22.9142 15.7752 23.3492 16.3566 23.2622 17.2276C23.2622 18.534 22.3922 19.1155 21.5236 19.1155C20.4796 19.1155 19.4355 18.68 18.48 17.9525L17.958 22.0204C19.0021 22.7453 20.1316 23.0373 21.1756 23.0373C24.3932 23.1808 26.3928 20.5679 26.3928 16.6461C26.3928 11.7073 22.3052 11.4179 22.3052 9.24047ZM36.7382 22.8942L34.3906 4.01256H31.869C31.347 4.01256 30.825 4.59403 30.651 5.46499L26.3038 22.8942H29.3474L29.9549 20.1353H33.6946L34.0426 22.8942H36.7382ZM32.3044 9.09529L33.1729 16.2115H30.7384L32.3044 9.09529Z" fill="#172B85"/>
</svg>
