<svg xmlns="http://www.w3.org/2000/svg" width="25" height="25" viewBox="0 0 25 25" fill="none">
  <g filter="url(#filter0_f_181_970)">
    <path d="M12.1079 7.56817C12.2973 7.29376 12.7027 7.29376 12.8921 7.56817C13.0482 7.7945 13.3631 7.84196 13.579 7.67172C13.8409 7.46531 14.2283 7.58481 14.3283 7.90284C14.4109 8.16515 14.6977 8.3033 14.9543 8.20427C15.2653 8.08421 15.6003 8.3126 15.6021 8.64599C15.6037 8.92097 15.8371 9.13754 16.1114 9.11853C16.444 9.09548 16.6968 9.41245 16.6003 9.73158C16.5207 9.9948 16.6799 10.2705 16.9477 10.3332C17.2723 10.4093 17.4204 10.7866 17.2341 11.0632C17.0805 11.2912 17.1514 11.6016 17.3887 11.7405C17.6765 11.9088 17.7068 12.3131 17.4473 12.5224C17.2333 12.6951 17.2095 13.0126 17.3954 13.2152C17.6208 13.4609 17.5306 13.8561 17.2209 13.9797C16.9655 14.0816 16.8492 14.378 16.9671 14.6264C17.1101 14.9276 16.9074 15.2787 16.5751 15.3055C16.301 15.3275 16.1024 15.5765 16.1419 15.8486C16.1897 16.1786 15.8925 16.4543 15.5671 16.382C15.2987 16.3223 15.0356 16.5016 14.9931 16.7733C14.9415 17.1027 14.5763 17.2786 14.2866 17.1135C14.0477 16.9774 13.7434 17.0712 13.6227 17.3183C13.4764 17.6179 13.0755 17.6783 12.8474 17.4352C12.6592 17.2347 12.3408 17.2347 12.1526 17.4352C11.9245 17.6783 11.5236 17.6179 11.3773 17.3183C11.2566 17.0712 10.9523 16.9774 10.7134 17.1135C10.4237 17.2786 10.0585 17.1027 10.0069 16.7733C9.96441 16.5016 9.70134 16.3223 9.43291 16.382C9.10746 16.4543 8.81026 16.1786 8.8581 15.8486C8.89756 15.5765 8.69904 15.3275 8.42494 15.3055C8.09262 15.2787 7.88991 14.9276 8.03288 14.6264C8.1508 14.378 8.03447 14.0816 7.77907 13.9797C7.4694 13.8561 7.37919 13.4609 7.60458 13.2152C7.79048 13.0126 7.76669 12.6951 7.55266 12.5224C7.29317 12.3131 7.32347 11.9088 7.61126 11.7405C7.84863 11.6016 7.91948 11.2912 7.76585 11.0632C7.57959 10.7866 7.72771 10.4093 8.05233 10.3332C8.32007 10.2705 8.47927 9.9948 8.39969 9.73158C8.30321 9.41245 8.55599 9.09548 8.88859 9.11853C9.16292 9.13754 9.39632 8.92097 9.39786 8.64599C9.39973 8.3126 9.73471 8.08421 10.0457 8.20427C10.3023 8.3033 10.5891 8.16515 10.6717 7.90284C10.7717 7.58481 11.1591 7.46531 11.421 7.67172C11.6369 7.84196 11.9518 7.7945 12.1079 7.56817Z" fill="#FF6A1D"/>
  </g>
  <defs>
    <filter id="filter0_f_181_970" x="0.375488" y="0.362427" width="24.249" height="24.2233" filterUnits="userSpaceOnUse" color-interpolation-filters="sRGB">
      <feFlood flood-opacity="0" result="BackgroundImageFix"/>
      <feBlend mode="normal" in="SourceGraphic" in2="BackgroundImageFix" result="shape"/>
      <feGaussianBlur stdDeviation="3.5" result="effect1_foregroundBlur_181_970"/>
    </filter>
  </defs>
</svg>