 <svg width="24" height="24" viewBox="0 0 24 24" fill="none" xmlns="http://www.w3.org/2000/svg">
      <mask id="path-1-inside-1_2183_18825" fill="white">
        <path
          fill-rule="evenodd"
          clip-rule="evenodd"
          d="M18.95 9H21.5V10H18.95C18.7184 11.1411 17.7095 12 16.5 12C15.2905 12 14.2816 11.1411 14.05 10H2.5V9H14.05C14.2816 7.85888 15.2905 7 16.5 7C17.7095 7 18.7184 7.85888 18.95 9ZM9.94999 15.7422H21.5V14.7422H9.94999C9.71836 13.6011 8.70948 12.7422 7.5 12.7422C6.29052 12.7422 5.28164 13.6011 5.05001 14.7422H2.5V15.7422H5.05001C5.28164 16.8833 6.29052 17.7422 7.5 17.7422C8.70948 17.7422 9.71836 16.8833 9.94999 15.7422Z"
        />
      </mask>
      <path
        fill-rule="evenodd"
        clip-rule="evenodd"
        d="M18.95 9H21.5V10H18.95C18.7184 11.1411 17.7095 12 16.5 12C15.2905 12 14.2816 11.1411 14.05 10H2.5V9H14.05C14.2816 7.85888 15.2905 7 16.5 7C17.7095 7 18.7184 7.85888 18.95 9ZM9.94999 15.7422H21.5V14.7422H9.94999C9.71836 13.6011 8.70948 12.7422 7.5 12.7422C6.29052 12.7422 5.28164 13.6011 5.05001 14.7422H2.5V15.7422H5.05001C5.28164 16.8833 6.29052 17.7422 7.5 17.7422C8.70948 17.7422 9.71836 16.8833 9.94999 15.7422Z"
        fill="#FDFCFD"
      />
      <path
        d="M21.5 9H22.5V8H21.5V9ZM18.95 9L17.97 9.19893L18.1326 10H18.95V9ZM21.5 10V11H22.5V10H21.5ZM18.95 10V9H18.1326L17.97 9.80107L18.95 10ZM14.05 10L15.03 9.80107L14.8674 9H14.05V10ZM2.5 10H1.5V11H2.5V10ZM2.5 9V8H1.5V9H2.5ZM14.05 9V10H14.8674L15.03 9.19893L14.05 9ZM21.5 15.7422V16.7422H22.5V15.7422H21.5ZM9.94999 15.7422V14.7422H9.13259L8.96998 15.5433L9.94999 15.7422ZM21.5 14.7422H22.5V13.7422H21.5V14.7422ZM9.94999 14.7422L8.96998 14.9411L9.13259 15.7422H9.94999V14.7422ZM5.05001 14.7422V15.7422H5.86741L6.03002 14.9411L5.05001 14.7422ZM2.5 14.7422V13.7422H1.5V14.7422H2.5ZM2.5 15.7422H1.5V16.7422H2.5V15.7422ZM5.05001 15.7422L6.03002 15.5433L5.86741 14.7422H5.05001V15.7422ZM21.5 8H18.95V10H21.5V8ZM22.5 10V9H20.5V10H22.5ZM18.95 11H21.5V9H18.95V11ZM16.5 13C18.1944 13 19.6056 11.7969 19.93 10.1989L17.97 9.80107C17.8311 10.4853 17.2245 11 16.5 11V13ZM13.07 10.1989C13.3944 11.7969 14.8056 13 16.5 13V11C15.7755 11 15.1689 10.4853 15.03 9.80107L13.07 10.1989ZM2.5 11H14.05V9H2.5V11ZM1.5 9V10H3.5V9H1.5ZM14.05 8H2.5V10H14.05V8ZM16.5 6C14.8056 6 13.3944 7.20308 13.07 8.80107L15.03 9.19893C15.1689 8.51468 15.7755 8 16.5 8V6ZM19.93 8.80107C19.6056 7.20308 18.1944 6 16.5 6V8C17.2245 8 17.8311 8.51468 17.97 9.19893L19.93 8.80107ZM21.5 14.7422H9.94999V16.7422H21.5V14.7422ZM20.5 14.7422V15.7422H22.5V14.7422H20.5ZM9.94999 15.7422H21.5V13.7422H9.94999V15.7422ZM10.93 14.5433C10.6056 12.9453 9.19443 11.7422 7.5 11.7422V13.7422C8.22452 13.7422 8.83108 14.2569 8.96998 14.9411L10.93 14.5433ZM7.5 11.7422C5.80557 11.7422 4.39437 12.9453 4.07 14.5433L6.03002 14.9411C6.16892 14.2569 6.77548 13.7422 7.5 13.7422V11.7422ZM2.5 15.7422H5.05001V13.7422H2.5V15.7422ZM3.5 15.7422V14.7422H1.5V15.7422H3.5ZM5.05001 14.7422H2.5V16.7422H5.05001V14.7422ZM4.07 15.9411C4.39437 17.5391 5.80557 18.7422 7.5 18.7422V16.7422C6.77548 16.7422 6.16892 16.2275 6.03002 15.5433L4.07 15.9411ZM7.5 18.7422C9.19443 18.7422 10.6056 17.5391 10.93 15.9411L8.96998 15.5433C8.83108 16.2275 8.22452 16.7422 7.5 16.7422V18.7422Z"
        fill="#271F2B"
        mask="url(#path-1-inside-1_2183_18825)"
      />
    </svg>