<svg width="42" height="42" viewBox="0 0 42 42" fill="none" xmlns="http://www.w3.org/2000/svg">
<path opacity="0.6" d="M20.5885 1.47674C20.7872 1.1887 21.2128 1.18871 21.4115 1.47674L22.581 3.17154C23.0728 3.88424 24.0642 4.03367 24.7442 3.49759L26.3613 2.2228C26.6362 2.00615 27.0428 2.13158 27.1478 2.4654L27.7658 4.42962C28.0257 5.25562 28.929 5.69063 29.7368 5.37881L31.6578 4.6373C31.9843 4.51128 32.3359 4.751 32.3379 5.10095L32.3494 7.16006C32.3543 8.02595 33.0893 8.7079 33.9531 8.64804L36.0073 8.5057C36.3564 8.48151 36.6218 8.81421 36.5205 9.14919L35.9246 11.1202C35.674 11.9491 36.1753 12.8174 37.0184 13.0148L39.0233 13.4843C39.3641 13.5641 39.5196 13.9602 39.324 14.2504L38.1737 15.9583C37.6899 16.6764 37.913 17.6539 38.6605 18.0911L40.4379 19.1306C40.74 19.3073 40.7718 19.7317 40.4994 19.9514L38.8968 21.2443C38.2228 21.788 38.1479 22.7878 38.7333 23.4258L40.1253 24.9431C40.3619 25.201 40.2672 25.6159 39.9422 25.7455L38.0297 26.5086C37.2254 26.8295 36.8591 27.7628 37.2304 28.545L38.1134 30.4052C38.2635 30.7214 38.0507 31.0899 37.7019 31.118L35.6494 31.2834C34.7863 31.353 34.1612 32.1369 34.2854 32.9938L34.5809 35.0317C34.6311 35.378 34.3191 35.6674 33.9775 35.5915L31.9675 35.1446C31.1222 34.9566 30.2938 35.5214 30.1599 36.3769L29.8416 38.4113C29.7875 38.757 29.4041 38.9417 29.1 38.7684L27.311 37.7489C26.5587 37.3201 25.6006 37.6157 25.2206 38.3937L24.3167 40.2439C24.1631 40.5583 23.7423 40.6217 23.5029 40.3665L22.0938 38.865C21.5013 38.2335 20.4987 38.2335 19.9062 38.865L18.4971 40.3665C18.2577 40.6217 17.8369 40.5583 17.6833 40.2439L16.7794 38.3937C16.3994 37.6157 15.4413 37.3201 14.689 37.7489L12.9 38.7684C12.5959 38.9417 12.2125 38.757 12.1584 38.4113L11.8401 36.3769C11.7062 35.5214 10.8778 34.9566 10.0325 35.1446L8.02248 35.5915C7.68087 35.6674 7.36892 35.378 7.41914 35.0317L7.71459 32.9938C7.83884 32.1369 7.21373 31.353 6.35061 31.2834L4.29812 31.118C3.9493 31.0899 3.73653 30.7214 3.88659 30.4052L4.76959 28.545C5.14091 27.7628 4.77461 26.8295 3.97035 26.5086L2.0578 25.7455C1.73276 25.6159 1.63807 25.201 1.87465 24.9431L3.26672 23.4258C3.85212 22.7878 3.77719 21.788 3.10324 21.2443L1.50057 19.9514C1.2282 19.7317 1.26 19.3073 1.56208 19.1306L3.33954 18.0911C4.087 17.6539 4.3101 16.6764 3.82634 15.9583L2.67596 14.2504C2.48045 13.9602 2.63592 13.5641 2.97666 13.4843L4.98156 13.0148C5.82467 12.8174 6.32598 11.9491 6.07539 11.1202L5.47951 9.14919C5.37824 8.81421 5.64357 8.48151 5.99268 8.5057L8.0469 8.64804C8.91074 8.7079 9.6457 8.02595 9.65057 7.16006L9.66213 5.10095C9.6641 4.751 10.0157 4.51128 10.3422 4.6373L12.2632 5.37881C13.071 5.69063 13.9743 5.25562 14.2342 4.42962L14.8522 2.4654C14.9572 2.13158 15.3638 2.00615 15.6387 2.2228L17.2558 3.49759C17.9358 4.03367 18.9272 3.88424 19.419 3.17154L20.5885 1.47674Z" stroke="#FEB273"/>
</svg>
