<svg width="40" height="40" viewBox="0 0 40 40" fill="none" xmlns="http://www.w3.org/2000/svg">
<path opacity="0.6" d="M19.9828 1.10002C19.9843 1.09433 19.9857 1.09077 19.9866 1.08883C19.9888 1.08798 19.9932 1.08666 20 1.08666C20.0068 1.08666 20.0112 1.08798 20.0134 1.08883C20.0143 1.09077 20.0157 1.09433 20.0172 1.10002C20.2631 2.06897 21.6126 2.1397 21.9585 1.20176C21.9605 1.19625 21.9623 1.19286 21.9634 1.19102C21.9657 1.19041 21.9702 1.18956 21.977 1.19027C21.9837 1.19098 21.988 1.19275 21.9901 1.19383C21.9908 1.19586 21.9918 1.19954 21.9927 1.20536C22.136 2.19471 23.4707 2.4061 23.9127 1.50946C23.9153 1.50419 23.9174 1.50101 23.9187 1.49929C23.921 1.49892 23.9257 1.49855 23.9323 1.49996C23.939 1.50137 23.943 1.50359 23.945 1.50487C23.9455 1.50696 23.9461 1.51074 23.9463 1.51661C23.9854 2.51551 25.2907 2.86527 25.8241 2.01975C25.8272 2.01478 25.8297 2.01183 25.8311 2.01026C25.8335 2.01013 25.8381 2.01024 25.8445 2.01234C25.851 2.01444 25.8548 2.01707 25.8566 2.01855C25.8569 2.02068 25.8571 2.0245 25.8568 2.03036C25.7912 3.02789 27.0528 3.51216 27.6716 2.72703C27.6753 2.72241 27.678 2.71973 27.6796 2.71833C27.6819 2.71844 27.6865 2.71904 27.6927 2.7218C27.699 2.72457 27.7025 2.72758 27.7041 2.72924C27.7042 2.73139 27.704 2.73521 27.703 2.741C27.5336 3.72621 28.7376 4.33971 29.4351 3.62355C29.4392 3.61934 29.4422 3.61697 29.444 3.61574C29.4463 3.61609 29.4508 3.61717 29.4567 3.62057C29.4626 3.62397 29.4657 3.62733 29.4672 3.62915C29.467 3.63129 29.4665 3.63508 29.4649 3.64073C29.1934 4.60284 30.3267 5.33883 31.0952 4.6995C31.0997 4.69574 31.103 4.69369 31.1049 4.69265C31.1071 4.69325 31.1115 4.69479 31.117 4.69879C31.1225 4.70278 31.1253 4.70646 31.1266 4.70842C31.1262 4.71053 31.1252 4.71424 31.123 4.7197C30.7525 5.64815 31.8027 6.49858 32.6338 5.94308C32.6387 5.93982 32.6421 5.93812 32.6441 5.93728C32.6463 5.93811 32.6504 5.9401 32.6555 5.94465C32.6605 5.9492 32.663 5.95315 32.664 5.95524C32.6634 5.95729 32.6621 5.96088 32.6593 5.96608C32.1937 6.85071 33.1493 7.80626 34.0339 7.34068C34.0365 7.33931 34.0387 7.33829 34.0405 7.33753C34.0423 7.33679 34.0437 7.3363 34.0448 7.33599C34.0469 7.33704 34.0508 7.33946 34.0554 7.34451C34.0599 7.34956 34.0619 7.35374 34.0627 7.35592C34.0619 7.3579 34.0602 7.36133 34.0569 7.36622C33.5014 8.19733 34.3518 9.24754 35.2803 8.87697C35.2858 8.8748 35.2895 8.87385 35.2916 8.87344C35.2935 8.8747 35.2972 8.87752 35.3012 8.88302C35.3052 8.88852 35.3068 8.89289 35.3073 8.89515C35.3063 8.89703 35.3043 8.90026 35.3005 8.90477C34.6612 9.67327 35.3972 10.8066 36.3593 10.5351C36.3649 10.5335 36.3687 10.533 36.3708 10.5328C36.3727 10.5343 36.376 10.5375 36.3794 10.5433C36.3828 10.5492 36.3839 10.5537 36.3843 10.556C36.383 10.5578 36.3807 10.5608 36.3764 10.5649C35.6603 11.2624 36.2738 12.4664 37.259 12.297C37.2648 12.296 37.2686 12.2958 37.2707 12.2959C37.2724 12.2975 37.2754 12.3011 37.2782 12.3073C37.281 12.3135 37.2816 12.3181 37.2817 12.3204C37.2803 12.322 37.2776 12.3247 37.273 12.3284C36.4878 12.9472 36.9721 14.2088 37.9696 14.1432C37.9755 14.1429 37.9793 14.1431 37.9814 14.1434C37.9829 14.1452 37.9856 14.149 37.9877 14.1555C37.9898 14.1619 37.9899 14.1666 37.9897 14.1689C37.9882 14.1704 37.9852 14.1728 37.9803 14.1759C37.1347 14.7093 37.4845 16.0146 38.4834 16.0537C38.4893 16.0539 38.493 16.0545 38.4951 16.055C38.4964 16.057 38.4986 16.061 38.5 16.0677C38.5015 16.0743 38.5011 16.079 38.5007 16.0813C38.499 16.0826 38.4958 16.0847 38.4905 16.0873C37.5939 16.5293 37.8053 17.864 38.7946 18.0073C38.8005 18.0082 38.8041 18.0092 38.8062 18.0099C38.8072 18.012 38.809 18.0163 38.8097 18.023C38.8104 18.0298 38.8096 18.0343 38.809 18.0366C38.8071 18.0377 38.8037 18.0395 38.7982 18.0415C37.8603 18.3874 37.931 19.7369 38.9 19.9828C38.9032 19.9836 38.9058 19.9845 38.9078 19.9852C38.9092 19.9857 38.9103 19.9862 38.9112 19.9866C38.912 19.9888 38.9133 19.9932 38.9133 20C38.9133 20.0068 38.912 20.0112 38.9112 20.0134C38.9092 20.0143 38.9057 20.0157 38.9 20.0172C37.931 20.2631 37.8603 21.6126 38.7982 21.9585C38.8037 21.9605 38.8071 21.9623 38.809 21.9634C38.8096 21.9657 38.8104 21.9702 38.8097 21.977C38.809 21.9837 38.8072 21.988 38.8062 21.9901C38.8041 21.9908 38.8005 21.9918 38.7946 21.9927C37.8053 22.136 37.5939 23.4707 38.4905 23.9127C38.4958 23.9153 38.499 23.9174 38.5007 23.9187C38.5011 23.921 38.5015 23.9257 38.5 23.9323C38.4986 23.939 38.4964 23.943 38.4951 23.945C38.493 23.9455 38.4893 23.9461 38.4834 23.9463C37.4845 23.9854 37.1347 25.2907 37.9803 25.8241C37.9852 25.8272 37.9882 25.8296 37.9897 25.8311C37.9899 25.8334 37.9898 25.8381 37.9877 25.8445C37.9856 25.851 37.9829 25.8548 37.9815 25.8566C37.9793 25.8569 37.9755 25.8571 37.9696 25.8568C36.9721 25.7912 36.4878 27.0528 37.273 27.6716C37.2776 27.6753 37.2803 27.678 37.2817 27.6796C37.2816 27.6803 37.2816 27.6812 37.2814 27.6823C37.281 27.6848 37.2801 27.6884 37.2782 27.6927C37.2754 27.6989 37.2724 27.7025 37.2708 27.7041C37.2686 27.7042 37.2648 27.704 37.259 27.703C36.2738 27.5336 35.6603 28.7376 36.3764 29.4351C36.3807 29.4392 36.383 29.4422 36.3843 29.444C36.3839 29.4463 36.3828 29.4508 36.3794 29.4567C36.376 29.4625 36.3727 29.4657 36.3709 29.4672C36.3687 29.467 36.3649 29.4665 36.3593 29.4649C35.3972 29.1934 34.6612 30.3267 35.3005 31.0952C35.3043 31.0997 35.3063 31.103 35.3073 31.1049C35.3068 31.1071 35.3052 31.1115 35.3012 31.117C35.2972 31.1225 35.2935 31.1253 35.2916 31.1266C35.2895 31.1262 35.2858 31.1252 35.2803 31.123C34.3518 30.7525 33.5014 31.8027 34.0569 32.6338C34.0602 32.6387 34.0619 32.6421 34.0627 32.6441C34.0619 32.6463 34.0599 32.6504 34.0554 32.6555C34.0508 32.6605 34.0468 32.663 34.0448 32.664C34.0427 32.6634 34.0391 32.6621 34.0339 32.6593C33.1493 32.1937 32.1937 33.1493 32.6593 34.0339C32.6621 34.0391 32.6634 34.0427 32.664 34.0448C32.663 34.0468 32.6605 34.0508 32.6555 34.0554C32.6504 34.0599 32.6463 34.0619 32.6441 34.0627C32.6421 34.0619 32.6387 34.0602 32.6338 34.0569C31.8027 33.5014 30.7525 34.3518 31.123 35.2803C31.1252 35.2858 31.1262 35.2895 31.1266 35.2916C31.1253 35.2935 31.1225 35.2972 31.117 35.3012C31.1115 35.3052 31.1071 35.3068 31.1049 35.3073C31.103 35.3063 31.0997 35.3043 31.0952 35.3005C30.3267 34.6612 29.1934 35.3972 29.4649 36.3593C29.4665 36.3649 29.467 36.3687 29.4672 36.3708C29.4671 36.371 29.4669 36.3712 29.4668 36.3714C29.4652 36.3733 29.462 36.3763 29.4567 36.3794C29.4535 36.3813 29.4507 36.3824 29.4484 36.3832C29.4465 36.3838 29.445 36.3841 29.444 36.3843C29.4422 36.383 29.4392 36.3807 29.4351 36.3764C28.7376 35.6603 27.5336 36.2738 27.703 37.259C27.704 37.2648 27.7042 37.2686 27.7041 37.2707C27.7025 37.2724 27.6989 37.2754 27.6927 37.2782C27.6865 37.281 27.6819 37.2816 27.6796 37.2817C27.678 37.2803 27.6753 37.2776 27.6716 37.273C27.0528 36.4878 25.7912 36.9721 25.8568 37.9696C25.8571 37.9755 25.8569 37.9793 25.8566 37.9815C25.8548 37.9829 25.851 37.9856 25.8445 37.9877C25.8381 37.9898 25.8334 37.9899 25.8311 37.9897C25.8296 37.9882 25.8272 37.9852 25.8241 37.9803C25.2907 37.1347 23.9854 37.4845 23.9463 38.4834C23.9461 38.4893 23.9455 38.493 23.945 38.4951C23.943 38.4964 23.939 38.4986 23.9323 38.5C23.9257 38.5015 23.921 38.5011 23.9187 38.5007C23.9174 38.499 23.9153 38.4958 23.9127 38.4905C23.4707 37.5939 22.136 37.8053 21.9927 38.7946C21.9919 38.7999 21.991 38.8035 21.9903 38.8056C21.9902 38.8058 21.9902 38.806 21.9901 38.8062C21.988 38.8072 21.9837 38.809 21.977 38.8097C21.9702 38.8104 21.9657 38.8096 21.9634 38.809C21.9623 38.8071 21.9605 38.8037 21.9585 38.7982C21.6126 37.8603 20.2631 37.931 20.0172 38.9C20.0165 38.9028 20.0157 38.9051 20.0151 38.907C20.0145 38.9088 20.0139 38.9102 20.0134 38.9112C20.0112 38.912 20.0068 38.9133 20 38.9133C19.9932 38.9133 19.9888 38.912 19.9866 38.9112C19.9857 38.9092 19.9843 38.9057 19.9828 38.9C19.7369 37.931 18.3874 37.8603 18.0415 38.7982C18.0395 38.8037 18.0377 38.8071 18.0366 38.809C18.0361 38.8091 18.0355 38.8093 18.0348 38.8094C18.0322 38.8099 18.0283 38.8103 18.023 38.8097C18.0163 38.809 18.012 38.8072 18.0099 38.8062C18.0092 38.8041 18.0082 38.8005 18.0073 38.7946C17.864 37.8053 16.5293 37.5939 16.0873 38.4905C16.0847 38.4958 16.0826 38.499 16.0813 38.5007C16.079 38.5011 16.0743 38.5015 16.0677 38.5C16.061 38.4986 16.057 38.4964 16.055 38.4951C16.0545 38.493 16.0539 38.4893 16.0537 38.4834C16.0146 37.4845 14.7093 37.1347 14.1759 37.9803C14.1728 37.9852 14.1704 37.9882 14.1689 37.9897C14.1666 37.9899 14.1619 37.9898 14.1555 37.9877C14.149 37.9856 14.1452 37.9829 14.1434 37.9815C14.1431 37.9793 14.1429 37.9755 14.1432 37.9696C14.2088 36.9721 12.9472 36.4878 12.3284 37.273C12.3247 37.2776 12.322 37.2803 12.3204 37.2817C12.3181 37.2816 12.3135 37.281 12.3073 37.2782C12.3011 37.2754 12.2975 37.2724 12.2959 37.2708C12.2958 37.2686 12.296 37.2648 12.297 37.259C12.4664 36.2738 11.2624 35.6603 10.5649 36.3764C10.5608 36.3807 10.5578 36.383 10.556 36.3843C10.5537 36.3839 10.5492 36.3828 10.5433 36.3794C10.5374 36.376 10.5343 36.3727 10.5328 36.3708C10.533 36.3687 10.5335 36.3649 10.5351 36.3593C10.8066 35.3972 9.67328 34.6612 8.90477 35.3005C8.90026 35.3043 8.89702 35.3063 8.89514 35.3073C8.89288 35.3067 8.88851 35.3052 8.88302 35.3012C8.87752 35.2972 8.8747 35.2935 8.87344 35.2916C8.87385 35.2895 8.8748 35.2858 8.87697 35.2803C9.24754 34.3518 8.19733 33.5014 7.36622 34.0569C7.36133 34.0602 7.3579 34.0619 7.35592 34.0627C7.35374 34.0619 7.34956 34.0599 7.34451 34.0554C7.33945 34.0508 7.33704 34.0469 7.33599 34.0448C7.33661 34.0427 7.33794 34.0391 7.34068 34.0339C7.80626 33.1493 6.85072 32.1937 5.96608 32.6593C5.96088 32.6621 5.95729 32.6634 5.95524 32.664C5.95315 32.663 5.9492 32.6605 5.94465 32.6555C5.9401 32.6504 5.93811 32.6463 5.93728 32.6441C5.93812 32.6421 5.93982 32.6387 5.94309 32.6338C6.49858 31.8027 5.64815 30.7525 4.7197 31.123C4.71424 31.1252 4.71053 31.1262 4.70842 31.1266C4.70646 31.1253 4.70278 31.1225 4.69879 31.117C4.69479 31.1115 4.69325 31.1071 4.69265 31.1049C4.69369 31.103 4.69574 31.0997 4.6995 31.0952C5.33883 30.3267 4.60284 29.1934 3.64073 29.4649C3.63508 29.4665 3.63129 29.467 3.62915 29.4672C3.62733 29.4657 3.62397 29.4626 3.62057 29.4567C3.61717 29.4508 3.61609 29.4463 3.61574 29.444C3.61697 29.4422 3.61934 29.4392 3.62355 29.4351C4.33971 28.7376 3.72621 27.5336 2.741 27.703C2.73521 27.704 2.73139 27.7042 2.72924 27.7041C2.72758 27.7025 2.72457 27.699 2.7218 27.6927C2.71904 27.6865 2.71844 27.6819 2.71833 27.6796C2.71973 27.678 2.72241 27.6753 2.72702 27.6716C3.51216 27.0528 3.02789 25.7912 2.03037 25.8568C2.02451 25.8571 2.02068 25.8569 2.01855 25.8566C2.01707 25.8548 2.01444 25.851 2.01234 25.8445C2.01024 25.8381 2.01013 25.8334 2.01026 25.8311C2.01183 25.8296 2.01478 25.8272 2.01975 25.8241C2.86527 25.2907 2.51551 23.9854 1.51661 23.9463C1.51074 23.9461 1.50696 23.9455 1.50487 23.945C1.50359 23.943 1.50137 23.939 1.49996 23.9323C1.49855 23.9257 1.49892 23.921 1.49929 23.9187C1.50101 23.9174 1.5042 23.9153 1.50946 23.9127C2.4061 23.4707 2.1947 22.136 1.20536 21.9927C1.19954 21.9918 1.19585 21.9908 1.19383 21.9901C1.19275 21.988 1.19098 21.9837 1.19027 21.977C1.18956 21.9702 1.19041 21.9657 1.19102 21.9634C1.19286 21.9623 1.19625 21.9605 1.20176 21.9585C2.1397 21.6126 2.06897 20.2631 1.10002 20.0172C1.09433 20.0157 1.09077 20.0143 1.08883 20.0134C1.08798 20.0112 1.08666 20.0068 1.08666 20C1.08666 19.9932 1.08798 19.9888 1.08883 19.9866C1.09077 19.9857 1.09433 19.9843 1.10002 19.9828C2.06897 19.7369 2.1397 18.3874 1.20176 18.0415C1.19625 18.0395 1.19286 18.0377 1.19102 18.0366C1.19041 18.0343 1.18956 18.0298 1.19027 18.023C1.19098 18.0163 1.19275 18.012 1.19383 18.0099C1.19586 18.0092 1.19954 18.0082 1.20536 18.0073C2.19471 17.864 2.4061 16.5293 1.50946 16.0873C1.50419 16.0847 1.50101 16.0826 1.49929 16.0813C1.49892 16.079 1.49855 16.0743 1.49996 16.0677C1.50137 16.061 1.50359 16.057 1.50487 16.055C1.50696 16.0545 1.51074 16.0539 1.51661 16.0537C2.51551 16.0146 2.86527 14.7093 2.01975 14.1759C2.01478 14.1728 2.01183 14.1704 2.01026 14.1689C2.01013 14.1666 2.01024 14.1619 2.01234 14.1555C2.01444 14.149 2.01707 14.1452 2.01855 14.1434C2.02068 14.1431 2.0245 14.1429 2.03036 14.1432C3.02789 14.2088 3.51217 12.9472 2.72702 12.3284C2.72241 12.3247 2.71973 12.322 2.71833 12.3204C2.71844 12.3181 2.71904 12.3135 2.7218 12.3073C2.72457 12.301 2.72758 12.2975 2.72924 12.2959C2.73139 12.2958 2.73521 12.296 2.741 12.297C3.72621 12.4664 4.33971 11.2624 3.62355 10.5649C3.61934 10.5608 3.61697 10.5578 3.61574 10.556C3.61609 10.5537 3.61717 10.5492 3.62057 10.5433C3.62397 10.5374 3.62733 10.5343 3.62915 10.5328C3.63129 10.533 3.63508 10.5335 3.64073 10.5351C4.60283 10.8066 5.33883 9.67328 4.6995 8.90477C4.69574 8.90026 4.69369 8.89702 4.69265 8.89515C4.69325 8.89288 4.69479 8.88852 4.69879 8.88302C4.70278 8.87752 4.70646 8.8747 4.70843 8.87344C4.71053 8.87385 4.71424 8.8748 4.7197 8.87697C5.64816 9.24754 6.49858 8.19734 5.94308 7.36622C5.93982 7.36133 5.93812 7.3579 5.93728 7.35593C5.93811 7.35374 5.9401 7.34956 5.94465 7.34451C5.9492 7.33945 5.95315 7.33704 5.95524 7.33599C5.95729 7.33661 5.96088 7.33794 5.96608 7.34068C6.85071 7.80626 7.80626 6.85071 7.34068 5.96608C7.33794 5.96088 7.33661 5.95729 7.33599 5.95524C7.33704 5.95315 7.33945 5.9492 7.34451 5.94465C7.34956 5.9401 7.35374 5.93811 7.35593 5.93728C7.3579 5.93812 7.36133 5.93982 7.36622 5.94308C8.19734 6.49858 9.24754 5.64816 8.87697 4.7197C8.8748 4.71424 8.87385 4.71053 8.87344 4.70843C8.8747 4.70646 8.87752 4.70278 8.88302 4.69879C8.88852 4.69479 8.89288 4.69325 8.89515 4.69265C8.89702 4.69369 8.90026 4.69574 8.90477 4.6995C9.67328 5.33883 10.8066 4.60283 10.5351 3.64073C10.5335 3.63508 10.533 3.63129 10.5328 3.62915C10.5343 3.62733 10.5374 3.62397 10.5433 3.62057C10.5492 3.61717 10.5537 3.61609 10.556 3.61574C10.5578 3.61697 10.5608 3.61934 10.5649 3.62355C11.2624 4.33971 12.4664 3.72621 12.297 2.741C12.296 2.73521 12.2958 2.73139 12.2959 2.72924C12.2975 2.72758 12.301 2.72457 12.3073 2.7218C12.3135 2.71904 12.3181 2.71844 12.3204 2.71833C12.322 2.71973 12.3247 2.72241 12.3284 2.72702C12.9472 3.51217 14.2088 3.02789 14.1432 2.03036C14.1429 2.0245 14.1431 2.02068 14.1434 2.01855C14.1452 2.01707 14.149 2.01444 14.1555 2.01234C14.1619 2.01024 14.1666 2.01013 14.1689 2.01026C14.1704 2.01183 14.1728 2.01478 14.1759 2.01975C14.7093 2.86527 16.0146 2.51551 16.0537 1.51661C16.0539 1.51074 16.0545 1.50696 16.055 1.50487C16.057 1.50359 16.061 1.50137 16.0677 1.49996C16.0743 1.49855 16.079 1.49892 16.0813 1.49929C16.0826 1.50101 16.0847 1.5042 16.0873 1.50946C16.5293 2.4061 17.864 2.1947 18.0073 1.20536C18.0082 1.19954 18.0092 1.19586 18.0099 1.19383C18.012 1.19275 18.0163 1.19098 18.023 1.19027C18.0298 1.18956 18.0343 1.19041 18.0366 1.19102C18.0377 1.19286 18.0395 1.19625 18.0415 1.20176C18.3874 2.1397 19.7369 2.06897 19.9828 1.10002Z" stroke="#E2BBFB"/>
</svg>
