<svg width="42" height="41" viewBox="0 0 42 41" fill="none" xmlns="http://www.w3.org/2000/svg">
<path opacity="0.6" d="M35.9964 12.8708L36.3323 12.5005L35.9964 12.8708L40.7709 17.2028C40.9398 17.3561 40.9836 17.6043 40.8773 17.8062L37.8723 23.5099C37.7265 23.7867 37.6709 24.1022 37.7132 24.4122L38.5862 30.7997C38.6171 31.0257 38.491 31.244 38.2798 31.3302L32.3116 33.768C32.022 33.8863 31.7766 34.0922 31.6098 34.3569L28.1727 39.8112C28.0511 40.0042 27.8142 40.0904 27.597 40.0207L21.4581 38.0518C21.1602 37.9563 20.8398 37.9563 20.5419 38.0518L14.403 40.0207C14.1858 40.0904 13.9489 40.0042 13.8273 39.8111L10.3902 34.3569C10.2234 34.0922 9.97801 33.8863 9.68837 33.768L3.72016 31.3302C3.50896 31.244 3.38294 31.0257 3.41383 30.7997L4.28677 24.4122C4.32913 24.1022 4.27351 23.7867 4.12767 23.5099L1.12272 17.8062C1.01638 17.6043 1.06015 17.3561 1.22911 17.2028L6.00363 12.8708C6.23534 12.6606 6.39551 12.3831 6.46173 12.0774L7.82608 5.7765C7.87436 5.55354 8.06744 5.39152 8.29541 5.38269L14.7375 5.1332C15.0501 5.12109 15.3511 5.01152 15.5984 4.81984L20.6937 0.870094C20.874 0.730325 21.126 0.730325 21.3063 0.870094L26.4016 4.81984C26.6489 5.01152 26.9499 5.12109 27.2625 5.1332L33.7046 5.38269C33.9326 5.39152 34.1256 5.55353 34.1739 5.7765L35.5383 12.0774C35.6045 12.3831 35.7647 12.6606 35.9964 12.8708Z" stroke="#F958F2"/>
</svg>
