<svg width="28" height="28" viewBox="0 0 28 28" fill="none" xmlns="http://www.w3.org/2000/svg">
<path fill-rule="evenodd" clip-rule="evenodd" d="M11.5284 3.14448C13.1359 2.35526 14.8636 2.35574 16.4713 3.1444C17.3859 3.59306 17.7926 4.55865 17.7926 5.4502V8.56156H21.8382L24.3444 25.4834H3.65674L6.16276 8.56156H10.2083V5.44932C10.2083 4.55843 10.6144 3.59324 11.5284 3.14448ZM10.2083 9.72822V10.6691H11.375V9.72822H16.6259V10.6691H17.7926V9.72822H20.8316L22.9922 24.3167H5.00891L7.16938 9.72822H10.2083ZM16.6259 8.56156H11.375V5.44932C11.375 4.8689 11.6359 4.3914 12.0426 4.19174C13.3256 3.56184 14.6736 3.56204 15.9575 4.19183C16.3647 4.39157 16.6259 4.86945 16.6259 5.4502V8.56156Z" fill="#19171A"/>
</svg>
