<svg width="40" height="40" viewBox="0 0 40 40" fill="none" xmlns="http://www.w3.org/2000/svg">
<path fill-rule="evenodd" clip-rule="evenodd" d="M16.3612 3.95534C18.7269 2.80361 21.2697 2.80432 23.6357 3.95523C24.9515 4.59532 25.5438 5.98038 25.5438 7.26602V11.7782H31.4849L35.1615 36.2206H4.8374L8.51372 11.7782H14.4549V7.26476C14.4549 5.98006 15.0462 4.59556 16.3612 3.95534ZM14.4549 13.4449V14.8149H16.1215V13.4464L23.8771 13.4449V14.8149H25.5438V13.4449H30.0502L33.2254 34.554H6.77349L9.94845 13.4449H14.4549ZM23.8771 11.7782H16.1215V7.26476C16.1215 6.43017 16.5003 5.74132 17.0908 5.45385C18.9956 4.52649 21.0005 4.5268 22.9066 5.45399C23.4978 5.74157 23.8771 6.43096 23.8771 7.26602V11.7782Z" fill="#19171A"/>
</svg>
