<svg
    xmlns="http://www.w3.org/2000/svg"
    width="16"
    height="17"
    viewBox="0 0 16 17"
    fill="none">
    <rect y="0.5" width="16" height="16" rx="8" fill="#F7EBFF" />
    <path
    d="M6 8.5C6 7.95 5.55 7.5 5 7.5C4.45 7.5 4 7.95 4 8.5C4 9.05 4.45 9.5 5 9.5C5.55 9.5 6 9.05 6 8.5ZM7 8.5C7 9.05 7.45 9.5 8 9.5C8.55 9.5 9 9.05 9 8.5C9 7.95 8.55 7.5 8 7.5C7.45 7.5 7 7.95 7 8.5ZM10 8.5C10 9.05 10.45 9.5 11 9.5C11.55 9.5 12 9.05 12 8.5C12 7.95 11.55 7.5 11 7.5C10.45 7.5 10 7.95 10 8.5Z"
    fill="#8A7E8F"
    />
</svg>