<svg xmlns="http://www.w3.org/2000/svg" width="24" height="24" viewBox="0 0 24 24" fill="none">
  <mask id="mask0_1209_8627" style="mask-type:alpha" maskUnits="userSpaceOnUse" x="0" y="0" width="24" height="24">
    <rect width="24" height="24" fill="#D9D9D9"/>
  </mask>
  <g mask="url(#mask0_1209_8627)">
    <path d="M12.0038 15.1538C13.02 15.1538 13.8823 14.7982 14.5906 14.0868C15.2989 13.3755 15.6531 12.5117 15.6531 11.4955C15.6531 10.4793 15.2974 9.61698 14.5861 8.90865C13.8747 8.20032 13.0109 7.84615 11.9947 7.84615C10.9785 7.84615 10.1162 8.20182 9.4079 8.91317C8.69956 9.62452 8.3454 10.4883 8.3454 11.5045C8.3454 12.5207 8.70107 13.383 9.41242 14.0913C10.1238 14.7997 10.9876 15.1538 12.0038 15.1538ZM11.9992 14.2C11.2492 14.2 10.6117 13.9375 10.0867 13.4125C9.56175 12.8875 9.29925 12.25 9.29925 11.5C9.29925 10.75 9.56175 10.1125 10.0867 9.5875C10.6117 9.0625 11.2492 8.8 11.9992 8.8C12.7492 8.8 13.3867 9.0625 13.9117 9.5875C14.4367 10.1125 14.6992 10.75 14.6992 11.5C14.6992 12.25 14.4367 12.8875 13.9117 13.4125C13.3867 13.9375 12.7492 14.2 11.9992 14.2ZM12.002 18C9.83606 18 7.86207 17.4106 6.08002 16.2317C4.29796 15.0529 2.96334 13.4756 2.07617 11.5C2.96334 9.52435 4.29704 7.94711 6.07727 6.76828C7.85749 5.58943 9.83056 5 11.9965 5C14.1624 5 16.1364 5.58943 17.9185 6.76828C19.7005 7.94711 21.0352 9.52435 21.9223 11.5C21.0352 13.4756 19.7015 15.0529 17.9212 16.2317C16.141 17.4106 14.1679 18 12.002 18ZM11.9992 17C13.8826 17 15.6117 16.5042 17.1867 15.5125C18.7617 14.5208 19.9659 13.1833 20.7992 11.5C19.9659 9.81667 18.7617 8.47917 17.1867 7.4875C15.6117 6.49583 13.8826 6 11.9992 6C10.1159 6 8.38675 6.49583 6.81175 7.4875C5.23675 8.47917 4.03258 9.81667 3.19925 11.5C4.03258 13.1833 5.23675 14.5208 6.81175 15.5125C8.38675 16.5042 10.1159 17 11.9992 17Z" fill="#8A7E8F"/>
  </g>
</svg>