<svg width="24" height="25" viewBox="0 0 24 25" fill="none" xmlns="http://www.w3.org/2000/svg">
<path d="M11.1984 17.5765H12.8016V11.4307H11.1984V17.5765ZM12 9.60139C12.2446 9.60139 12.4497 9.51867 12.6151 9.35321C12.7806 9.18776 12.8633 8.98273 12.8633 8.73813C12.8633 8.49354 12.7806 8.28852 12.6151 8.12304C12.4497 7.95759 12.2446 7.87486 12 7.87486C11.7554 7.87486 11.5504 7.95759 11.385 8.12304C11.2195 8.28852 11.1368 8.49354 11.1368 8.73813C11.1368 8.98273 11.2195 9.18776 11.385 9.35321C11.5504 9.51867 11.7554 9.60139 12 9.60139ZM12.0018 22.6534C10.5975 22.6534 9.27742 22.3869 8.04171 21.8539C6.80598 21.3209 5.73108 20.5976 4.817 19.6839C3.9029 18.7702 3.17924 17.6958 2.64602 16.4606C2.1128 15.2255 1.84619 13.9057 1.84619 12.5013C1.84619 11.097 2.11269 9.77693 2.64568 8.54122C3.17866 7.3055 3.90199 6.23059 4.81566 5.31651C5.72935 4.40242 6.80378 3.67876 8.03896 3.14554C9.27411 2.61231 10.5939 2.3457 11.9982 2.3457C13.4026 2.3457 14.7227 2.6122 15.9584 3.14519C17.1941 3.67818 18.269 4.40151 19.1831 5.31518C20.0972 6.22886 20.8208 7.3033 21.3541 8.53847C21.8873 9.77363 22.1539 11.0934 22.1539 12.4978C22.1539 13.9021 21.8874 15.2222 21.3544 16.4579C20.8214 17.6936 20.0981 18.7685 19.1844 19.6826C18.2707 20.5967 17.1963 21.3203 15.9611 21.8536C14.726 22.3868 13.4062 22.6534 12.0018 22.6534ZM12 21.0502C14.3871 21.0502 16.409 20.2218 18.0656 18.5652C19.7223 16.9085 20.5507 14.8866 20.5507 12.4995C20.5507 10.1125 19.7223 8.09063 18.0656 6.43395C16.409 4.77726 14.3871 3.94892 12 3.94892C9.61299 3.94892 7.59112 4.77726 5.93443 6.43395C4.27775 8.09063 3.44941 10.1125 3.44941 12.4995C3.44941 14.8866 4.27775 16.9085 5.93443 18.5652C7.59112 20.2218 9.61299 21.0502 12 21.0502Z" fill="#8A7E8F"/>
</svg>
