<svg width="32" height="32" viewBox="0 0 32 32" fill="none" xmlns="http://www.w3.org/2000/svg">
<path fill-rule="evenodd" clip-rule="evenodd" d="M10.8 4.02734H10.3672L10.191 4.42261L8.94084 7.22753C7.44147 10.5915 6.66692 14.2334 6.66753 17.9163L6.66793 20.2895L4.95182 21.4795L4.66504 21.6784V22.0273V23.3607V24.0273H5.33171H24.6667H26.6667H27.3333V23.3607V22.0273V21.6787L27.0469 21.4798L25.3333 20.2898V17.9162C25.3333 14.2333 24.5585 10.5915 23.0591 7.22753L21.8089 4.42261L21.6327 4.02734H21.2H16H10.8ZM10.1587 7.77034L11.2327 5.36068H16H20.7672L21.8413 7.77034C23.2645 10.9635 24 14.4203 24 17.9162V20.6385V20.9871L24.2864 21.186L26 22.376V22.694H24.6667H5.99838V22.3763L7.71454 21.1863L8.00138 20.9874L8.00132 20.6383L8.00087 17.9161C8.00028 14.4203 8.73549 10.9634 10.1587 7.77034ZM14.3288 25.5227C14.2379 25.3033 14.1911 25.0681 14.1911 24.8306H12.8578C12.8578 25.2432 12.939 25.6517 13.0969 26.0329C13.2548 26.4141 13.4863 26.7605 13.778 27.0522C14.0698 27.344 14.4161 27.5754 14.7973 27.7333C15.1785 27.8912 15.5871 27.9725 15.9997 27.9725C16.4123 27.9725 16.8209 27.8912 17.2021 27.7333C17.5833 27.5754 17.9296 27.344 18.2214 27.0522C18.5131 26.7605 18.7446 26.4141 18.9025 26.0329C19.0604 25.6517 19.1416 25.2432 19.1416 24.8306H17.8083C17.8083 25.0681 17.7615 25.3033 17.6706 25.5227C17.5797 25.7421 17.4465 25.9415 17.2786 26.1094C17.1106 26.2774 16.9112 26.4106 16.6918 26.5015C16.4724 26.5924 16.2372 26.6392 15.9997 26.6392C15.7622 26.6392 15.527 26.5924 15.3076 26.5015C15.0881 26.4106 14.8888 26.2774 14.7208 26.1094C14.5529 25.9415 14.4197 25.7421 14.3288 25.5227Z" fill="#19171A"/>
</svg>
