<svg width="28" height="28" viewBox="0 0 28 28" fill="none" xmlns="http://www.w3.org/2000/svg">
<path d="M18.4821 4.49811C16.2717 4.75303 15.1836 5.90113 13.8734 7.30222C12.2878 5.72671 11.0686 4.54795 8.40252 4.51153C8.28668 4.50961 8.17654 4.51153 8.0721 4.51536C6.54535 4.57095 5.12684 5.14595 4.08242 6.12921C3.02851 7.12205 2.35628 8.52506 2.3335 10.2232C2.3335 10.3344 2.3335 10.4417 2.33729 10.5452C2.48713 14.7722 6.19464 18.1865 9.27066 21.0193L9.28173 21.0295C9.84951 21.5528 10.3964 22.0568 10.8692 22.5149L13.4518 25.0258L13.8962 25.457L14.3348 25.0181L17.4605 21.8882C17.8744 21.4742 18.3663 20.9988 18.8923 20.4909C19.7924 19.6207 20.7912 18.6547 21.7312 17.6715C22.4167 16.9565 23.07 16.232 23.6301 15.5305C24.2017 14.8156 24.6803 14.1179 25.0031 13.4682C25.5747 12.3182 25.7532 11.1624 25.6297 10.0776C25.5082 9.00807 25.0923 8.01331 24.4714 7.16614C23.8561 6.32855 23.0358 5.63471 22.0958 5.15937C21.0077 4.60736 19.7582 4.35053 18.4821 4.49811Z" fill="#E2BBFB"/>
</svg>
