<svg width="24" height="25" viewBox="0 0 24 25" fill="none" xmlns="http://www.w3.org/2000/svg">
<path fill-rule="evenodd" clip-rule="evenodd" d="M15.0151 7.56916C15.0151 9.23194 13.6659 10.5812 12 10.5812C10.3341 10.5812 8.98487 9.23194 8.98487 7.56916C8.98487 5.90639 10.3341 4.55713 12 4.55713C13.6659 4.55713 15.0151 5.90639 15.0151 7.56916ZM16.0151 7.56916C16.0151 9.78495 14.2175 11.5812 12 11.5812C9.7825 11.5812 7.98487 9.78495 7.98487 7.56916C7.98487 5.35338 9.7825 3.55713 12 3.55713C14.2175 3.55713 16.0151 5.35338 16.0151 7.56916ZM7.98485 12.4185H7.74465L7.59453 12.606C5.79085 14.8589 4.80811 17.6588 4.80811 20.5447V20.9426V21.4426H5.30811H18.6918H19.1918V20.9426V20.5447C19.1918 17.6588 18.2091 14.8589 16.4054 12.606L16.2553 12.4185H16.0151H12H7.98485ZM5.80855 20.4426C5.83074 17.8994 6.68087 15.4339 8.22815 13.4185H12H15.7718C17.3191 15.4339 18.1692 17.8994 18.1914 20.4426H5.80855Z" fill="#19171A"/>
</svg>
