<svg width="28" height="28" viewBox="0 0 28 28" fill="none" xmlns="http://www.w3.org/2000/svg">
<path d="M14.7638 8.1268C14.6347 8.26207 14.5056 8.39922 14.3461 8.56267L13.9075 9.01545L13.4519 8.5777C13.3171 8.44807 13.1804 8.31468 13.0475 8.18504C11.6387 6.81356 10.5774 5.78026 8.39216 5.75208C8.30672 5.7502 8.21559 5.75208 8.12066 5.75583C6.89798 5.79904 5.77022 6.24431 4.94624 7.0052C4.13365 7.75669 3.61534 8.82194 3.59825 10.1183C3.59635 10.1991 3.59825 10.2836 3.60205 10.3757C3.73305 13.996 7.23403 17.1541 10.137 19.7712C10.697 20.2766 11.2343 20.7613 11.7488 21.2517L13.8866 23.2901L16.5731 20.6524C17.006 20.2278 17.4958 19.7637 18.0199 19.2677C18.9103 18.4223 19.9013 17.4848 20.8241 16.5398C21.4867 15.8616 22.1151 15.1796 22.6486 14.5239C23.1726 13.8814 23.6017 13.2708 23.877 12.726C24.3288 11.8317 24.4712 10.9374 24.3744 10.1014C24.2795 9.27659 23.951 8.50631 23.4593 7.84875C22.96 7.1818 22.2955 6.62945 21.5341 6.25182C20.657 5.81971 19.6526 5.61493 18.6255 5.73141C16.8541 5.93431 15.9105 6.92441 14.7638 8.1268ZM13.8734 7.24004C15.1834 5.86668 16.2713 4.74131 18.4812 4.49144C19.7571 4.34678 21.0063 4.59853 22.0942 5.13961C23.034 5.60553 23.8542 6.28564 24.4693 7.10665C25.0902 7.93705 25.506 8.91212 25.6275 9.96045C25.7509 11.0238 25.5724 12.1567 25.0009 13.2839C24.6782 13.9208 24.1997 14.6047 23.6283 15.3055C23.0682 15.9931 22.4151 16.7032 21.7297 17.404C20.7899 18.3678 19.7912 19.3147 18.8913 20.1676C18.3654 20.6655 17.8737 21.1314 17.4598 21.5372L14.3347 24.6052L13.8961 25.0355L13.4519 24.6127L10.8698 22.1516C10.3971 21.7026 9.85027 21.2085 9.28259 20.6956C6.205 17.9169 2.48948 14.5671 2.33949 10.4189C2.33569 10.3174 2.33569 10.2122 2.33569 10.1032C2.35848 8.43867 3.03057 7.06344 4.08428 6.09025C5.1285 5.12646 6.54674 4.56283 8.0732 4.50835C8.17762 4.50459 8.28774 4.50271 8.40355 4.50459C11.0692 4.54029 12.288 5.69571 13.8734 7.24004Z" fill="#19171A"/>
</svg>
