<svg width="28" height="28" viewBox="0 0 28 28" fill="none" xmlns="http://www.w3.org/2000/svg">
<path fill-rule="evenodd" clip-rule="evenodd" d="M20.8596 12.3932C20.8596 17.0904 17.0518 20.8982 12.3547 20.8982C7.65755 20.8982 3.84977 17.0904 3.84977 12.3932C3.84977 7.69612 7.65755 3.88835 12.3547 3.88835C17.0518 3.88835 20.8596 7.69612 20.8596 12.3932ZM18.809 19.5962C17.0971 21.1312 14.8349 22.0648 12.3547 22.0648C7.01322 22.0648 2.68311 17.7347 2.68311 12.3932C2.68311 7.05179 7.01322 2.72168 12.3547 2.72168C17.6961 2.72168 22.0262 7.05179 22.0262 12.3932C22.0262 14.8346 21.1217 17.0647 19.6294 18.7667L25.3164 24.4536L24.4914 25.2786L18.809 19.5962Z" fill="#19171A"/>
</svg>
