<svg xmlns="http://www.w3.org/2000/svg" width="28" height="28" viewBox="0 0 28 28" fill="none">
  <path fill-rule="evenodd" clip-rule="evenodd" d="M17.9104 7.79035C17.9104 9.94668 16.1607 11.6963 14.0006 11.6963C11.8404 11.6963 10.0908 9.94668 10.0908 7.79035C10.0908 5.63402 11.8404 3.88444 14.0006 3.88444C16.1607 3.88444 17.9104 5.63402 17.9104 7.79035ZM19.077 7.79035C19.077 10.5919 16.8042 12.8629 14.0006 12.8629C11.1969 12.8629 8.9241 10.5919 8.9241 7.79035C8.9241 4.98884 11.1969 2.71777 14.0006 2.71777C16.8042 2.71777 19.077 4.98884 19.077 7.79035ZM8.9237 13.9704H8.64347L8.46833 14.1892C6.1948 17.0289 4.95605 20.5582 4.95605 24.1959V24.6989V25.2823H5.53939H22.4609H23.0443V24.6989V24.1959C23.0443 20.5582 21.8055 17.0289 19.532 14.1892L19.3569 13.9704H19.0766H14.0002H8.9237ZM6.12294 24.1156C6.14052 20.8641 7.2252 17.7101 9.20726 15.1371H14.0002H18.7931C20.7751 17.7101 21.8598 20.8641 21.8774 24.1156H6.12294Z" fill="#19171A"/>
</svg>