<svg width="667" height="273" viewBox="0 0 667 273" fill="none" xmlns="http://www.w3.org/2000/svg">
<path d="M665.035 64.4213C668.464 80.1337 662.571 97.1751 648.819 114.576C635.069 131.973 613.51 149.666 585.757 166.639C530.255 200.583 450.081 231.592 358.391 251.6C266.7 271.607 180.896 276.817 116.299 269.08C83.9983 265.211 57.0283 258.108 37.2813 248.021C17.5301 237.93 5.07412 224.893 1.64549 209.181C-1.78315 193.468 4.10931 176.427 17.8616 159.026C31.6111 141.629 53.1704 123.936 80.9234 106.963C136.425 73.0185 216.6 42.0102 308.29 22.0023C399.98 1.99441 485.784 -3.21564 550.381 4.52156C582.682 8.39046 609.652 15.4934 629.399 25.5813C649.15 35.6714 661.606 48.7089 665.035 64.4213Z" stroke="url(#paint0_angular_106_5284)"/>
<defs>
<radialGradient id="paint0_angular_106_5284" cx="0" cy="0" r="1" gradientUnits="userSpaceOnUse" gradientTransform="translate(333.34 136.801) rotate(173.133) scale(267.977 73.5932)">
<stop stop-color="#ECD5FF"/>
<stop offset="0.528174" stop-color="#F19F9F"/>
<stop offset="0.84375" stop-color="#FFE195"/>
<stop offset="1" stop-color="#E5C4FF"/>
</radialGradient>
</defs>
</svg>
