<svg width="343" height="243" viewBox="0 0 343 243" fill="none" xmlns="http://www.w3.org/2000/svg">
<path d="M213.236 194.509C167.344 221.267 121.124 237.293 83.5014 241.581C64.6897 243.725 48.0399 242.933 34.6594 239.091C21.2806 235.248 11.1854 228.361 5.44658 218.323C-0.292441 208.284 -1.15084 196.01 2.24402 182.387C5.63924 168.761 13.2855 153.803 24.5302 138.422C47.0191 107.66 83.8726 75.2492 129.764 48.4913C175.656 21.7332 221.876 5.7069 259.499 1.41879C278.31 -0.725317 294.96 0.0666709 308.341 3.90945C321.719 7.75172 331.815 14.6387 337.553 24.677C343.292 34.7158 344.151 46.9898 340.756 60.6134C337.361 74.2386 329.715 89.1973 318.47 104.578C295.981 135.34 259.127 167.751 213.236 194.509Z" stroke="url(#paint0_angular_139_6589)" stroke-width="0.5"/>
<defs>
<radialGradient id="paint0_angular_139_6589" cx="0" cy="0" r="1" gradientUnits="userSpaceOnUse" gradientTransform="translate(171.5 121.5) rotate(-168.995) scale(137.083 74.7193)">
<stop stop-color="#ECD5FF"/>
<stop offset="0.528174" stop-color="#F19F9F"/>
<stop offset="0.84375" stop-color="#FFE195"/>
<stop offset="1" stop-color="#E5C4FF"/>
</radialGradient>
</defs>
</svg>
