<svg width="1026" height="422" viewBox="0 0 1026 422" fill="none" xmlns="http://www.w3.org/2000/svg">
<path d="M1023.79 99.3975C1029.12 123.81 1020.03 150.232 998.86 177.147C977.697 204.058 944.512 231.399 901.806 257.607C816.399 310.021 693.013 357.847 551.892 388.641C410.771 419.435 278.677 427.358 179.199 415.288C129.457 409.253 87.8991 398.222 57.4491 382.573C26.9953 366.923 7.72081 346.691 2.39372 322.278C-2.93337 297.866 6.16074 271.444 27.3263 244.529C48.4891 217.618 81.6744 190.277 124.38 164.069C209.787 111.655 333.174 63.8294 474.294 33.0352C615.415 2.24099 747.509 -5.6823 846.987 6.38766C896.729 12.4229 938.287 23.4537 968.737 39.1025C999.191 54.7533 1018.47 74.985 1023.79 99.3975Z" stroke="url(#paint0_angular_230_5765)"/>
<defs>
<radialGradient id="paint0_angular_230_5765" cx="0" cy="0" r="1" gradientUnits="userSpaceOnUse" gradientTransform="translate(513.093 210.838) rotate(173.159) scale(412.401 113.807)">
<stop stop-color="#ECD5FF"/>
<stop offset="0.528174" stop-color="#F19F9F"/>
<stop offset="0.84375" stop-color="#FFE195"/>
<stop offset="1" stop-color="#E5C4FF"/>
</radialGradient>
</defs>
</svg>
