<svg width="87" height="63" viewBox="0 0 87 63" fill="none" xmlns="http://www.w3.org/2000/svg">
<path d="M86.0188 48.6401C86.0188 50.9569 85.4923 53.0104 84.4392 54.8007C83.4914 56.4856 82.2277 57.9073 80.648 59.0657C79.0684 60.2241 77.3308 61.1193 75.4352 61.7511C73.6449 62.2777 71.96 62.5409 70.3803 62.5409C67.9582 62.5409 65.4835 62.0144 62.956 60.9613C60.5339 59.8029 58.3224 58.1706 56.3215 56.0644C54.3206 53.9582 52.6883 51.4308 51.4246 48.4821C50.1609 45.5334 49.5291 42.2688 49.5291 38.6883C49.5291 32.4751 50.6875 27.1569 53.0043 22.7339C55.4264 18.3109 58.2697 14.6251 61.5343 11.6764C64.9043 8.62243 68.3268 6.25296 71.802 4.56801C75.3826 2.77775 78.3312 1.51403 80.648 0.776866V5.83173C78.5418 7.09544 76.2777 8.46447 73.8556 9.9388C71.5387 11.4131 69.3799 13.1507 67.379 15.1516C65.4835 17.1525 63.9038 19.4167 62.6401 21.9441C61.3764 24.4715 60.7445 27.3149 60.7445 30.4742C60.7445 32.0538 60.9025 33.3175 61.2184 34.2653C61.5343 35.2131 61.9029 35.9503 62.3242 36.4768C62.8507 37.0034 63.3246 37.3719 63.7458 37.5826C64.2724 37.7932 64.6936 37.8985 65.0096 37.8985C66.168 37.8985 67.5896 37.5826 69.2746 36.9507C70.9596 36.2135 72.5392 35.845 74.0135 35.845C75.3826 35.845 76.7516 36.1609 78.1206 36.7927C79.5949 37.3193 80.9113 38.1618 82.0697 39.3202C83.2281 40.3733 84.1759 41.6896 84.9131 43.2693C85.6502 44.8489 86.0188 46.6392 86.0188 48.6401ZM36.7537 48.3241C36.7537 50.641 36.2271 52.6945 35.174 54.4848C34.2262 56.275 32.9625 57.7494 31.3829 58.9078C29.8032 59.9609 28.0656 60.8033 26.1701 61.4352C24.3798 61.9617 22.6422 62.225 20.9572 62.225C18.5351 62.225 16.113 61.6985 13.6909 60.6454C11.2688 59.487 9.05726 57.9073 7.05638 55.9064C5.0555 53.8002 3.4232 51.2728 2.15948 48.3241C1.00108 45.3755 0.421875 42.1109 0.421875 38.5304C0.421875 32.3171 1.58028 26.999 3.89709 22.576C6.31921 18.0476 9.16257 14.3091 12.4272 11.3605C15.7971 8.3065 19.2196 5.93704 22.6949 4.25208C26.1701 2.46182 29.0661 1.1981 31.3829 0.460938V5.67376C29.2767 6.93748 27.0125 8.3065 24.5904 9.78084C22.2736 11.2552 20.1148 12.9928 18.1139 14.9937C16.2183 16.9945 14.586 19.2587 13.217 21.7861C11.9533 24.2083 11.3214 27.0516 11.3214 30.3162C11.3214 33.2649 11.9006 35.2131 13.059 36.1609C14.3227 37.1087 15.2705 37.5826 15.9024 37.5826C16.9555 37.5826 18.3245 37.2666 20.0095 36.6348C21.6944 36.0029 23.2741 35.687 24.7484 35.687C26.1174 35.687 27.4864 36.0029 28.8555 36.6348C30.3298 37.1613 31.6462 38.0038 32.8046 39.1622C33.963 40.2153 34.9108 41.5317 35.6479 43.1113C36.3851 44.5857 36.7537 46.3233 36.7537 48.3241Z" fill="#F2DDFF"/>
</svg>
