<svg width="64" height="64" viewBox="0 0 64 64" fill="none" xmlns="http://www.w3.org/2000/svg">
<path d="M31.3033 25.9772C31.2097 26.0683 31.1349 26.1769 31.0832 26.2968C31.0316 26.4168 31.0041 26.5458 31.0024 26.6764C31.0007 26.807 31.0247 26.9367 31.0731 27.058C31.1215 27.1793 31.1934 27.2899 31.2845 27.3834L31.3033 27.4021L31.997 26.6897L31.3033 25.9772ZM31.3033 27.4021L31.3127 27.4115L31.322 27.4209L31.3314 27.4303L31.3408 27.4396L31.3502 27.449L31.3783 27.4678L31.3877 27.4865L31.4158 27.4959L31.4345 27.5146L31.4533 27.524L31.472 27.5427H31.4908L31.5002 27.5615H31.5189L31.5377 27.5709L31.547 27.5802L31.5658 27.5896L31.5939 27.599H31.6033L31.6127 27.6084L31.6408 27.6177L31.6595 27.6271L31.6783 27.6365H31.7064L31.7158 27.6459H31.7345L31.7533 27.6552H31.772L31.7814 27.6646H31.8189L31.8283 27.674H31.8751L31.8939 27.6834H32.1564L32.1658 27.674H32.1845L32.2033 27.6646H32.2314L32.2501 27.6552H32.2782V27.6459H32.297L32.3064 27.6365H32.3345L32.3439 27.6271L32.3626 27.6177H32.3814V27.6084H32.4001L32.4095 27.599L32.4376 27.5896V27.5802H32.4564L32.4657 27.5709L32.4845 27.5615L32.5032 27.5521L32.5126 27.5427L32.5314 27.5334L32.5501 27.5146L32.5689 27.5053L32.5876 27.4865L32.6157 27.4678L32.6345 27.4584L32.6532 27.4396L32.672 27.4209L32.6907 27.4021C32.6907 27.4021 34.9969 25.096 38.4842 25.096C39.8529 25.096 41.6434 26.2116 43.6402 27.449C46.1432 29.0146 48.9462 30.7676 52.1242 31.1051C52.3865 31.1324 52.6489 31.0545 52.8537 30.8883C53.0585 30.7222 53.1889 30.4815 53.2163 30.2192C53.2436 29.9569 53.1657 29.6945 52.9995 29.4896C52.8334 29.2848 52.5927 29.1544 52.3304 29.127C49.6118 28.8364 47.015 27.2053 44.6901 25.7522C42.4403 24.346 40.4247 23.0898 38.4842 23.0898C35.4281 23.0898 33.0938 24.5429 31.9876 25.3866C30.1274 23.9388 27.8479 23.133 25.4911 23.0898C23.5599 23.0898 21.5538 24.3554 19.3039 25.7522C16.9696 27.2053 14.3635 28.8364 11.6449 29.127C11.3826 29.1556 11.1424 29.2873 10.9771 29.493C10.8119 29.6986 10.7351 29.9616 10.7637 30.2239C10.7923 30.4862 10.9239 30.7264 11.1296 30.8916C11.3353 31.0569 11.5982 31.1337 11.8605 31.1051C15.0385 30.7676 17.8415 29.0146 20.3538 27.449C22.3412 26.2116 24.1224 25.096 25.4911 25.096C28.9784 25.096 31.2939 27.3928 31.3033 27.4021ZM32.6907 27.4021L31.997 26.6897L32.7001 25.9772C32.7931 26.0689 32.8672 26.178 32.918 26.2983C32.9688 26.4186 32.9954 26.5477 32.9963 26.6783C32.9972 26.8089 32.9723 26.9384 32.9231 27.0594C32.8738 27.1804 32.8013 27.2905 32.7095 27.3834L32.6907 27.4021Z" fill="#271F2B"/>
<path d="M32.6985 25.9772C32.7916 26.0689 32.8656 26.178 32.9164 26.2983C32.9672 26.4186 32.9939 26.5477 32.9947 26.6783C32.9956 26.8089 32.9707 26.9384 32.9215 27.0594C32.8723 27.1804 32.7997 27.2905 32.7079 27.3834L32.6985 27.4021L31.9955 26.6897L32.6985 25.9772ZM32.6985 27.4021L32.6892 27.4115L32.6798 27.4209L32.661 27.4303L32.6423 27.449L32.6235 27.4678L32.6048 27.4865L32.586 27.4959L32.5673 27.5146L32.5392 27.524L32.5204 27.5427H32.5017V27.5615H32.4736L32.4642 27.5709L32.4548 27.5802H32.4361L32.4173 27.5896L32.3986 27.599H32.3892L32.3798 27.6084H32.3611L32.3517 27.6177L32.3329 27.6271H32.3142L32.2861 27.6365L32.2767 27.6459H32.2579L32.2392 27.6552H32.2111L32.1642 27.6646L32.1173 27.674L32.0986 27.6834H31.8267V27.674H31.7986L31.7798 27.6552H31.7517L31.733 27.6459H31.7142L31.7048 27.6365H31.6861L31.658 27.6271L31.6486 27.6177L31.6205 27.6084L31.6017 27.599H31.5923L31.5736 27.5896L31.5548 27.5802L31.5455 27.5709L31.5267 27.5615H31.4986V27.5521H31.4799L31.4611 27.5334L31.433 27.5146L31.4142 27.5053L31.3955 27.4865L31.3767 27.4678L31.358 27.4584L31.3392 27.4396L31.3205 27.4209L31.3017 27.4021C31.2924 27.4021 28.9862 25.096 25.4989 25.096C24.1302 25.096 22.349 26.2116 20.3616 27.449C17.8493 29.0146 15.0463 30.7676 11.8683 31.1051C11.606 31.1337 11.3431 31.0569 11.1374 30.8916C10.9317 30.7264 10.8001 30.4862 10.7715 30.2239C10.7429 29.9616 10.8197 29.6986 10.9849 29.493C11.1502 29.2873 11.3904 29.1556 11.6527 29.127C14.3713 28.8364 16.9774 27.2053 19.3023 25.7522C21.5522 24.346 23.5677 23.0898 25.4989 23.0898C28.555 23.0898 30.8986 24.5429 31.9955 25.3866C33.1016 24.5429 35.4359 23.0898 38.492 23.0898C40.4325 23.0898 42.4481 24.3554 44.698 25.7522C47.0228 27.2053 49.6196 28.8364 52.3382 29.127C52.4681 29.1406 52.594 29.1796 52.7088 29.2418C52.8236 29.304 52.9251 29.3882 53.0073 29.4896C53.0896 29.5911 53.1511 29.7077 53.1883 29.8329C53.2255 29.958 53.2376 30.0893 53.2241 30.2192C53.2106 30.3491 53.1716 30.475 53.1094 30.5898C53.0471 30.7046 52.9629 30.8061 52.8615 30.8883C52.7601 30.9706 52.6435 31.0321 52.5183 31.0693C52.3931 31.1064 52.2618 31.1186 52.132 31.1051C48.9446 30.7676 46.151 29.0146 43.6386 27.449C41.6512 26.2116 39.8607 25.096 38.492 25.096C35.0047 25.096 32.7079 27.3928 32.6985 27.4021ZM31.3017 27.4021L31.9955 26.6897L31.3017 25.9772C31.2081 26.0683 31.1333 26.1769 31.0817 26.2968C31.03 26.4168 31.0026 26.5458 31.0008 26.6764C30.9991 26.807 31.0231 26.9367 31.0715 27.058C31.1199 27.1793 31.1918 27.2899 31.283 27.3834L31.3017 27.4021Z" fill="#271F2B"/>
<path d="M32.0152 40.9002C32.28 40.9002 32.534 40.795 32.7212 40.6078C32.9084 40.4205 33.0136 40.1666 33.0136 39.9018C33.0136 39.637 32.9084 39.3831 32.7212 39.1959C32.534 39.0086 32.28 38.9034 32.0152 38.9034H32.0902C32.0652 38.9025 32.0402 38.9025 32.0152 38.9034H31.9215H31.9871C31.7223 38.9034 31.4684 39.0086 31.2811 39.1959C31.0939 39.3831 30.9887 39.637 30.9887 39.9018C30.9887 40.1666 31.0939 40.4205 31.2811 40.6078C31.4684 40.795 31.7223 40.9002 31.9871 40.9002H31.8934H32.0152ZM32.109 40.9002C32.3569 40.8739 32.5862 40.7562 32.7521 40.5701C32.918 40.3839 33.0086 40.1426 33.0062 39.8933C33.0039 39.644 32.9088 39.4045 32.7394 39.2214C32.5701 39.0384 32.3386 38.9251 32.0902 38.9034C38.3712 38.8472 40.5461 36.466 42.6553 34.1412C44.4552 32.1538 46.2177 30.2132 49.9956 29.4539C51.9754 29.089 53.9824 28.8914 55.9953 28.8633C56.2601 28.862 56.5145 28.966 56.7026 29.1524C56.8908 29.3388 56.9971 29.5922 56.9984 29.857C56.9996 30.1218 56.8956 30.3762 56.7093 30.5643C56.5229 30.7524 56.2695 30.8588 56.0047 30.8601C55.0279 30.8708 54.052 30.924 53.0798 31.0194C52.208 31.1132 51.2987 31.2351 50.38 31.4225C47.2582 32.0506 45.7114 33.7474 44.1365 35.4817C41.7366 38.116 39.2618 40.8252 32.1184 40.9002H32.109ZM31.9215 38.9034C31.6731 38.9251 31.4416 39.0384 31.2723 39.2214C31.1029 39.4045 31.0078 39.644 31.0055 39.8933C31.0031 40.1426 31.0937 40.3839 31.2596 40.5701C31.4255 40.7562 31.6548 40.8739 31.9027 40.9002C24.7312 40.8346 22.2657 38.116 19.8658 35.4817C18.2909 33.7474 16.7441 32.0506 13.613 31.4225C12.7202 31.2438 11.8192 31.1093 10.9131 31.0194C9.94095 30.924 8.96508 30.8708 7.98828 30.8601C7.85778 30.8588 7.72881 30.8319 7.60872 30.7808C7.48863 30.7298 7.37977 30.6555 7.28837 30.5624C7.19697 30.4692 7.1248 30.359 7.076 30.238C7.0272 30.1169 7.00272 29.9875 7.00395 29.857C7.00518 29.7265 7.0321 29.5975 7.08318 29.4774C7.13425 29.3573 7.20848 29.2485 7.30163 29.1571C7.39477 29.0657 7.50501 28.9935 7.62604 28.9447C7.74707 28.8959 7.87653 28.8714 8.00703 28.8727C10.02 28.9008 12.0269 29.0984 14.0067 29.4633C17.7753 30.2132 19.5377 32.1538 21.347 34.1412C23.4563 36.4567 25.6312 38.8472 31.9215 38.9034Z" fill="#271F2B"/>
<path d="M14.3427 29.2678C14.0804 29.2305 13.814 29.2989 13.6022 29.458C13.3903 29.6171 13.2504 29.8539 13.2131 30.1162C13.1758 30.3785 13.2442 30.6448 13.4033 30.8567C13.5624 31.0685 13.7992 31.2085 14.0615 31.2458C20.0893 32.0614 26.089 32.4645 32.07 32.4645C38.0509 32.4645 44.0131 32.0614 49.9285 31.2458C50.1878 31.2078 50.4217 31.0689 50.5791 30.8593C50.7365 30.6496 50.8047 30.3863 50.7689 30.1266C50.733 29.867 50.596 29.632 50.3877 29.4729C50.1793 29.3138 49.9166 29.2434 49.6566 29.2771C37.9384 30.9045 26.0515 30.9045 14.3333 29.2771L14.3427 29.2678Z" fill="#271F2B"/>
</svg>
