<svg width="36" height="24" viewBox="0 0 36 24" fill="none" xmlns="http://www.w3.org/2000/svg">
<g id="hit">
<path id="Subtract" d="M0 0H36V9C34.3055 9 32.9318 10.3431 32.9318 12C32.9318 13.6569 34.3055 15 36 15V24H0V15C1.69451 15 3.06818 13.6569 3.06818 12C3.06818 10.3431 1.69451 9 0 9V0Z" fill="#FEC84B"/>
<g id="hit_2">
<path d="M6 17L7.70896 8H9.41792L8.73184 11.6292H12.025L12.7111 8H14.42L12.7111 17H11.0021L11.7132 13.2246H8.41998L7.70896 17H6Z" fill="#FDFCFD"/>
<path d="M14.4785 17L16.1875 8H17.8964L16.1875 17H14.4785Z" fill="#FDFCFD"/>
<path d="M18.8731 17L20.2827 9.5954H18.5737L18.8731 8H24L23.7006 9.5954H21.9917L20.5821 17H18.8731Z" fill="#FDFCFD"/>
</g>
<path id="Vector 215" d="M29 1V23.5" stroke="#FDFCFD" stroke-dasharray="4 4"/>
</g>
</svg>
